<svg xmlns="http://www.w3.org/2000/svg" xmlns:xlink="http://www.w3.org/1999/xlink" viewBox="0 0 1558 964.72"><defs><style>.cls-1{fill:url(#linear-gradient);}</style><linearGradient id="linear-gradient" x1="1172.42" y1="238.36" x2="153.19" y2="835.22" gradientUnits="userSpaceOnUse"><stop offset="0" stop-color="#2aa9ff"/><stop offset="1" stop-color="#3ff9ff"/></linearGradient></defs><title>bg</title><g id="Layer_2" data-name="Layer 2"><g id="Layer_1-2" data-name="Layer 1"><path class="cls-1" d="M179.47,956c6.92,1.54,14,3.11,21.22,2.69,7.88-.45,15.15-3.23,22.31-5.77,96.1-34.17,212.72-33,307.59,3.11,6.54,2.49,13.25,5.19,20.56,5.4,8.59.26,16.61-2.95,24.32-5.85,96.8-36.54,216-36.62,312.92-.22,7.77,2.92,15.81,6.13,24.47,6,8-.12,15.33-3.08,22.48-5.78,98.39-37.24,220.11-36.55,317.75,1.81,9.43,3.71,19.31,7.86,29.9,7.33,8.16-.41,15.57-3.57,22.81-6.47,53.11-21.24,108.93-30.65,163.52-30.19a456.73,456.73,0,0,1,88.68,9.47V417s-50-231-385-231S779,0,779,0H0V928.14C62.45,927.46,117.33,942.07,179.47,956Z"/></g></g></svg>