<?xml version="1.0" encoding="utf-8"?>
<!-- Generator: Adobe Illustrator 23.0.6, SVG Export Plug-In . SVG Version: 6.00 Build 0)  -->
<svg version="1.1" id="Layer_1" xmlns="http://www.w3.org/2000/svg" xmlns:xlink="http://www.w3.org/1999/xlink" x="0px" y="0px"
	 viewBox="0 0 250 100" style="enable-background:new 0 0 250 100;" xml:space="preserve">
<style type="text/css">
	.st0{fill:#065BAA;}
	.st1{fill:#E31E30;}
</style>
<g>
	<path id="blue-text" class="st0" d="M71.3,49.8c3.7-1.3,7.2-4.5,7.2-10.5c0-6.9-4.7-11.1-12.6-11.1h-12c-0.8,0-1.4,0.6-1.4,1.4
		v33.6c0,0.8,0.6,1.4,1.4,1.4h2.6c0.8,0,1.4-0.6,1.4-1.4V50.8h7.6l8.7,13.3c0.3,0.4,0.7,0.6,1.2,0.6h3c0.5,0,1-0.3,1.2-0.7
		c0.2-0.5,0.2-1-0.1-1.4L71.3,49.8z M58,45.5v-12h7.8c6.6,0,7.3,3.4,7.3,6s-0.8,6-7.3,6H58z M103.8,38v14.9c0,7.7-4.5,12.3-12,12.3
		c-7.6,0-12-4.5-12-12.3V38c0-0.8,0.6-1.4,1.4-1.4h2.6c0.8,0,1.4,0.6,1.4,1.4v15c0,4.8,2,7,6.6,7c4.5,0,6.6-2.2,6.6-7V38
		c0-0.8,0.6-1.4,1.4-1.4h2.6C103.2,36.6,103.8,37.2,103.8,38z M129.7,46.8v16.5c0,0.8-0.6,1.4-1.4,1.4h-2.6c-0.8,0-1.4-0.6-1.4-1.4
		V46.8c0-2.8-0.7-5.3-6.1-5.3c-2.1,0-4.4,0.4-6.7,1.2v20.6c0,0.8-0.6,1.4-1.4,1.4h-2.6c-0.8,0-1.4-0.6-1.4-1.4V40.2
		c0-0.5,0.3-1,0.7-1.2c1.3-0.7,5.9-2.9,11.6-2.9C125.6,36.1,129.7,40,129.7,46.8z M155.7,46.8v16.5c0,0.8-0.6,1.4-1.4,1.4h-2.6
		c-0.8,0-1.4-0.6-1.4-1.4V46.8c0-2.8-0.7-5.3-6.1-5.3c-2.1,0-4.4,0.4-6.7,1.2v20.6c0,0.8-0.6,1.4-1.4,1.4h-2.6
		c-0.8,0-1.4-0.6-1.4-1.4V40.2c0-0.5,0.3-1,0.7-1.2c1.3-0.7,5.9-2.9,11.6-2.9C151.6,36.1,155.7,40,155.7,46.8z M169.9,36.2
		c-9.4,0-12.8,7.8-12.8,15c0,12.1,8.5,14,13.5,14c3.3,0,6.7-0.7,9.1-1.8c0.5-0.2,0.8-0.7,0.8-1.3v-2.7c0-0.5-0.3-1-0.7-1.2
		c-0.4-0.3-1-0.3-1.4,0c-1.8,1-4.7,1.6-7.6,1.6c-6.2,0-7.4-3.2-7.8-5.6c0-0.1,0-0.2-0.1-0.3c0-0.1-0.1-0.2-0.1-0.3h17.9
		c0.7,0,1.3-0.6,1.4-1.3c0-0.1,0.1-0.5,0.1-1.5C182.3,43.7,179,36.2,169.9,36.2z M162.7,48.5c0.6-4.7,2.9-7,7-7c5.4,0,6.7,4.5,7,7
		H162.7z M198.1,37.6v2.5c0,0.8-0.6,1.4-1.4,1.4c-3.2,0.1-6,0.7-8,1.2v20.7c0,0.8-0.6,1.4-1.4,1.4h-2.6c-0.8,0-1.4-0.6-1.4-1.4V40
		c0-0.6,0.3-1.1,0.8-1.3c1.4-0.6,6.2-2.5,12.5-2.5c0.4,0,0.7,0.1,1,0.4C198,36.8,198.1,37.2,198.1,37.6z M199.3,61.9h-1v-0.7h2.8
		v0.7h-1v2.9h-0.8V61.9z M204.6,64.8h0.8l-0.2-3.6h-1.1l-0.4,1.2c-0.1,0.4-0.2,0.9-0.3,1.3l0,0c-0.1-0.4-0.2-0.9-0.3-1.3l-0.4-1.2
		h-1.1l-0.2,3.6h0.8l0.1-1.4c0-0.4,0-1,0.1-1.5l0,0c0.1,0.5,0.2,1,0.3,1.4l0.4,1.4h0.6l0.4-1.4c0.1-0.4,0.3-0.9,0.4-1.4l0,0
		c0,0.5,0,1,0,1.5L204.6,64.8z"/>
	<path id="blue_Swoosh" class="st0" d="M219.1,78.1c0,0,40.7-68-124.5-72.1c0,0,53.2-5.4,104.4,8.7
		C249.4,28.6,261.3,57.9,219.1,78.1"/>
	<path id="red_Swoosh" class="st1" d="M30.5,21.9c0,0-40.7,68,124.5,72.1c0,0-53.2,5.4-104.4-8.7C0.2,71.4-11.7,42.1,30.5,21.9"/>
</g>
</svg>
